<?xml version="1.0" encoding="UTF-8" standalone="no"?>
<!-- Created with Inkscape (http://www.inkscape.org/) -->

<svg
   version="1.1"
   id="svg2"
   width="349.56"
   height="105.74667"
   viewBox="0 0 349.56 105.74667"
   sodipodi:docname="Itepro.eps"
   xmlns:inkscape="http://www.inkscape.org/namespaces/inkscape"
   xmlns:sodipodi="http://sodipodi.sourceforge.net/DTD/sodipodi-0.dtd"
   xmlns="http://www.w3.org/2000/svg"
   xmlns:svg="http://www.w3.org/2000/svg">
  <defs
     id="defs6" />
  <sodipodi:namedview
     id="namedview4"
     pagecolor="#ffffff"
     bordercolor="#000000"
     borderopacity="0.25"
     inkscape:showpageshadow="2"
     inkscape:pageopacity="0.0"
     inkscape:pagecheckerboard="0"
     inkscape:deskcolor="#d1d1d1" />
  <g
     id="g8"
     inkscape:groupmode="layer"
     inkscape:label="ink_ext_XXXXXX"
     transform="matrix(1.3333333,0,0,-1.3333333,0,105.74667)">
    <g
       id="g10"
       transform="scale(0.1)">
      <path
         d="M 2621.75,383.027 2385.21,247.512 v 271.019 z"
         style="fill:#2151a8;fill-opacity:1;fill-rule:nonzero;stroke:none"
         id="path12" />
      <path
         d="M 135.508,0 0,236.543 h 271.016 z"
         style="fill:#4fbe37;fill-opacity:1;fill-rule:nonzero;stroke:none"
         id="path14" />
      <path
         d="m 118.949,412.41 h 11.903 v -72.379 h -11.903 z m 11.903,13.02 h -11.903 v 14.562 h 11.903 V 425.43"
         style="fill:#2151a8;fill-opacity:1;fill-rule:nonzero;stroke:none"
         id="path16" />
      <path
         d="m 149.332,412.41 h 11.199 v -11.48 h 0.282 c 5.039,8.965 13.156,13.164 23.519,13.164 19.035,0 24.922,-10.918 24.922,-26.465 v -47.598 h -11.906 v 49.004 c 0,8.817 -5.594,14.559 -14.696,14.559 -14.422,0 -21.422,-9.668 -21.422,-22.684 v -40.879 h -11.898 v 72.379"
         style="fill:#2151a8;fill-opacity:1;fill-rule:nonzero;stroke:none"
         id="path18" />
      <path
         d="m 243.688,412.41 h 14.417 v -10.504 h -14.417 v -44.933 c 0,-5.457 1.542,-6.446 8.957,-6.446 h 5.46 v -10.496 h -9.097 c -12.32,0 -17.223,2.52 -17.223,15.821 v 46.054 h -12.316 v 10.504 h 12.316 v 21.703 h 11.903 V 412.41"
         style="fill:#2151a8;fill-opacity:1;fill-rule:nonzero;stroke:none"
         id="path20" />
      <path
         d="m 321.527,383.145 c -0.554,11.347 -9.093,20.449 -20.859,20.449 -12.461,0 -19.879,-9.383 -20.719,-20.449 z m 11.481,-20.157 c -3.219,-15.957 -14.695,-24.636 -30.938,-24.636 -23.101,0 -34.019,15.957 -34.722,38.074 0,21.699 14.285,37.668 34.019,37.668 25.621,0 33.461,-23.946 32.766,-41.446 h -54.184 c -0.418,-12.597 6.723,-23.8 22.539,-23.8 9.801,0 16.66,4.765 18.762,14.14 h 11.758"
         style="fill:#2151a8;fill-opacity:1;fill-rule:nonzero;stroke:none"
         id="path22" />
      <path
         d="m 397.125,377.688 c 0,12.742 -5.602,25.906 -20.582,25.906 -15.258,0 -21.414,-12.461 -21.414,-26.328 0,-13.02 4.758,-27.578 20.437,-27.578 15.68,0 21.559,14.425 21.559,28 z m 11.762,-31.497 c 0,-23.523 -10.782,-35.566 -33.606,-35.566 -13.578,0 -29.258,5.469 -29.953,21.289 h 11.899 c 0.554,-8.68 10.918,-11.766 18.757,-11.766 15.539,0 21.704,11.2 21.704,27.442 v 4.765 h -0.282 c -3.922,-8.828 -13.441,-13.164 -22.543,-13.164 -21.558,0 -32.34,16.942 -32.34,36.676 0,17.082 8.399,38.227 33.461,38.227 9.098,0 17.219,-4.063 21.559,-12.043 h -0.137 0.282 v 10.359 h 11.199 v -66.219"
         style="fill:#2151a8;fill-opacity:1;fill-rule:nonzero;stroke:none"
         id="path24" />
      <path
         d="m 426.387,412.41 h 11.203 v -15.262 h 0.277 c 5.742,11.622 13.719,17.364 26.602,16.946 v -12.61 c -19.18,0 -26.184,-10.918 -26.184,-29.257 v -32.196 h -11.898 v 72.379"
         style="fill:#2151a8;fill-opacity:1;fill-rule:nonzero;stroke:none"
         id="path26" />
      <path
         d="m 518.223,377.41 c -4.618,-3.355 -13.578,-3.504 -21.559,-4.898 -7.84,-1.399 -14.559,-4.199 -14.559,-13.02 0,-7.84 6.719,-10.644 14,-10.644 15.676,0 22.118,9.804 22.118,16.379 z m 19.32,-37.097 c -2.098,-1.258 -4.762,-1.961 -8.539,-1.961 -6.16,0 -10.082,3.359 -10.082,11.199 -6.578,-7.703 -15.402,-11.199 -25.481,-11.199 -13.16,0 -23.937,5.878 -23.937,20.3 0,16.379 12.18,19.875 24.5,22.258 13.16,2.52 24.359,1.68 24.359,10.645 0,10.351 -8.539,12.039 -16.101,12.039 -10.078,0 -17.5,-3.086 -18.059,-13.723 h -11.898 c 0.699,17.922 14.554,24.223 30.66,24.223 13.015,0 27.156,-2.942 27.156,-19.883 v -37.238 c 0,-5.606 0,-8.125 3.781,-8.125 0.981,0 2.098,0.144 3.641,0.703 v -9.238"
         style="fill:#2151a8;fill-opacity:1;fill-rule:nonzero;stroke:none"
         id="path28" />
      <path
         d="m 549.301,439.992 h 11.898 v -99.961 h -11.898 v 99.961"
         style="fill:#2151a8;fill-opacity:1;fill-rule:nonzero;stroke:none"
         id="path30" />
      <path
         d="m 664.801,362.852 c 0.418,-10.645 9.656,-14.004 19.457,-14.004 7.422,0 17.5,1.679 17.5,10.781 0,9.238 -11.758,10.781 -23.656,13.437 -11.762,2.668 -23.664,6.582 -23.664,20.442 0,14.558 14.417,20.586 27.023,20.586 15.957,0 28.699,-5.039 29.676,-22.688 h -11.899 c -0.84,9.239 -8.961,12.188 -16.797,12.188 -7.144,0 -15.398,-1.961 -15.398,-9.246 0,-8.535 12.598,-9.942 23.656,-12.602 11.899,-2.652 23.66,-6.578 23.66,-20.574 0,-17.227 -16.101,-22.82 -30.8,-22.82 -16.239,0 -29.961,6.582 -30.661,24.5 h 11.903"
         style="fill:#2151a8;fill-opacity:1;fill-rule:nonzero;stroke:none"
         id="path32" />
      <path
         d="m 758.738,348.848 c 12.457,0 22.547,9.804 22.547,27.304 0,17.637 -10.09,27.442 -22.547,27.442 -12.461,0 -22.539,-9.805 -22.539,-27.442 0,-17.5 10.078,-27.304 22.539,-27.304 z m 0,65.246 c 22.957,0 35.145,-16.66 35.145,-37.942 0,-21.14 -12.188,-37.8 -35.145,-37.8 -22.957,0 -35.14,16.66 -35.14,37.8 0,21.282 12.183,37.942 35.14,37.942"
         style="fill:#2151a8;fill-opacity:1;fill-rule:nonzero;stroke:none"
         id="path34" />
      <path
         d="m 812.777,401.906 h -12.175 v 10.504 h 12.175 v 10.785 c 0,11.758 7.004,17.918 20.02,17.918 2.246,0 5.461,-0.418 7.707,-1.121 v -10.363 c -2.102,0.703 -4.621,0.976 -6.719,0.976 -5.742,0 -9.101,-1.816 -9.101,-8.113 V 412.41 h 13.992 v -10.504 h -13.992 v -61.875 h -11.907 v 61.875"
         style="fill:#2151a8;fill-opacity:1;fill-rule:nonzero;stroke:none"
         id="path36" />
      <path
         d="m 865.836,412.41 h 14.422 v -10.504 h -14.422 v -44.933 c 0,-5.457 1.543,-6.446 8.965,-6.446 h 5.457 v -10.496 h -9.102 c -12.324,0 -17.215,2.52 -17.215,15.821 v 46.054 h -12.324 v 10.504 h 12.324 v 21.703 h 11.895 V 412.41"
         style="fill:#2151a8;fill-opacity:1;fill-rule:nonzero;stroke:none"
         id="path38" />
      <path
         d="m 965.094,340.031 h -12.598 l -14.699,57.539 h -0.281 L 922.953,340.031 H 910.074 L 886.84,412.41 h 13.156 l 16.387,-59.215 h 0.273 l 14.559,59.215 h 13.019 l 15.125,-59.215 h 0.274 l 16.242,59.215 h 12.324 l -23.105,-72.379"
         style="fill:#2151a8;fill-opacity:1;fill-rule:nonzero;stroke:none"
         id="path40" />
      <path
         d="m 1044.33,377.41 c -4.62,-3.355 -13.58,-3.504 -21.56,-4.898 -7.84,-1.399 -14.56,-4.199 -14.56,-13.02 0,-7.84 6.72,-10.644 14,-10.644 15.69,0 22.12,9.804 22.12,16.379 z m 19.32,-37.097 c -2.1,-1.258 -4.76,-1.961 -8.54,-1.961 -6.16,0 -10.08,3.359 -10.08,11.199 -6.58,-7.703 -15.4,-11.199 -25.47,-11.199 -13.17,0 -23.951,5.878 -23.951,20.3 0,16.379 12.181,19.875 24.501,22.258 13.16,2.52 24.36,1.68 24.36,10.645 0,10.351 -8.54,12.039 -16.1,12.039 -10.07,0 -17.5,-3.086 -18.06,-13.723 h -11.896 c 0.691,17.922 14.556,24.223 30.656,24.223 13.02,0 27.17,-2.942 27.17,-19.883 v -37.238 c 0,-5.606 0,-8.125 3.77,-8.125 0.98,0 2.1,0.144 3.64,0.703 v -9.238"
         style="fill:#2151a8;fill-opacity:1;fill-rule:nonzero;stroke:none"
         id="path42" />
      <path
         d="m 1074.29,412.41 h 11.2 v -15.262 h 0.29 c 5.74,11.622 13.72,17.364 26.6,16.946 v -12.61 c -19.18,0 -26.18,-10.918 -26.18,-29.257 v -32.196 h -11.91 v 72.379"
         style="fill:#2151a8;fill-opacity:1;fill-rule:nonzero;stroke:none"
         id="path44" />
      <path
         d="m 1169.1,383.145 c -0.56,11.347 -9.1,20.449 -20.86,20.449 -12.46,0 -19.89,-9.383 -20.73,-20.449 z m 11.48,-20.157 c -3.22,-15.957 -14.71,-24.636 -30.95,-24.636 -23.09,0 -34.01,15.957 -34.71,38.074 0,21.699 14.27,37.668 34.02,37.668 25.62,0 33.46,-23.946 32.75,-41.446 h -54.18 c -0.42,-12.597 6.72,-23.8 22.54,-23.8 9.81,0 16.66,4.765 18.76,14.14 h 11.77"
         style="fill:#2151a8;fill-opacity:1;fill-rule:nonzero;stroke:none"
         id="path46" />
      <path
         d="m 1305.87,403.594 c -15.95,0 -22.12,-13.723 -22.12,-27.305 0,-14.277 6.44,-27.441 22.83,-27.441 16.24,0 21.7,13.855 21.7,28 0,13.582 -7.01,26.746 -22.41,26.746 z m -33.59,8.816 h 11.89 v -9.801 h 0.29 c 3.91,7.977 13.15,11.485 23.09,11.485 22.27,0 33.32,-17.649 33.32,-38.086 0,-20.442 -10.91,-37.656 -33.03,-37.656 -7.42,0 -18.06,2.8 -23.38,11.336 h -0.29 v -37.383 h -11.89 V 412.41"
         style="fill:#2151a8;fill-opacity:1;fill-rule:nonzero;stroke:none"
         id="path48" />
      <path
         d="m 1354.45,412.41 h 11.2 v -15.262 h 0.28 c 5.74,11.622 13.73,17.364 26.6,16.946 v -12.61 c -19.18,0 -26.18,-10.918 -26.18,-29.257 v -32.196 h -11.9 v 72.379"
         style="fill:#2151a8;fill-opacity:1;fill-rule:nonzero;stroke:none"
         id="path50" />
      <path
         d="m 1430.21,348.848 c 12.46,0 22.53,9.804 22.53,27.304 0,17.637 -10.07,27.442 -22.53,27.442 -12.45,0 -22.54,-9.805 -22.54,-27.442 0,-17.5 10.09,-27.304 22.54,-27.304 z m 0,65.246 c 22.96,0 35.15,-16.66 35.15,-37.942 0,-21.14 -12.19,-37.8 -35.15,-37.8 -22.95,0 -35.14,16.66 -35.14,37.8 0,21.282 12.19,37.942 35.14,37.942"
         style="fill:#2151a8;fill-opacity:1;fill-rule:nonzero;stroke:none"
         id="path52" />
      <path
         d="m 1510.44,348.848 c 15.96,0 22.11,13.722 22.11,27.304 0,14.278 -6.43,27.442 -22.81,27.442 -16.25,0 -21.7,-13.867 -21.7,-28.008 0,-13.574 6.99,-26.738 22.4,-26.738 z m 33.59,-8.817 h -11.89 v 9.805 h -0.29 c -3.91,-7.988 -13.15,-11.484 -23.09,-11.484 -22.27,0 -33.32,17.636 -33.32,38.074 0,20.441 10.92,37.668 33.03,37.668 7.42,0 18.06,-2.805 23.38,-11.352 h 0.29 v 37.25 h 11.89 v -99.961"
         style="fill:#2151a8;fill-opacity:1;fill-rule:nonzero;stroke:none"
         id="path54" />
      <path
         d="m 1622.29,340.031 h -11.21 v 11.485 h -0.27 c -5.04,-8.965 -13.16,-13.164 -23.52,-13.164 -19.04,0 -24.92,10.918 -24.92,26.453 v 47.605 h 11.9 v -49 c 0,-8.82 5.6,-14.562 14.7,-14.562 14.42,0 21.43,9.66 21.43,22.687 v 40.875 h 11.89 v -72.379"
         style="fill:#2151a8;fill-opacity:1;fill-rule:nonzero;stroke:none"
         id="path56" />
      <path
         d="m 1689.35,389.172 c -1.82,9.101 -8.11,14.422 -17.91,14.422 -17.23,0 -22.54,-13.582 -22.54,-28.281 0,-13.301 6.01,-26.465 21.13,-26.465 11.48,0 18.34,6.718 19.88,17.644 h 12.19 c -2.66,-17.644 -13.73,-28.14 -31.93,-28.14 -22.11,0 -33.87,15.398 -33.87,36.961 0,21.699 11.19,38.781 34.16,38.781 16.37,0 29.53,-7.707 31.21,-24.922 h -12.32"
         style="fill:#2151a8;fill-opacity:1;fill-rule:nonzero;stroke:none"
         id="path58" />
      <path
         d="m 1731.9,412.41 h 14.44 v -10.504 h -14.44 v -44.933 c 0,-5.457 1.55,-6.446 8.97,-6.446 h 5.47 v -10.496 h -9.1 c -12.33,0 -17.23,2.52 -17.23,15.821 v 46.054 h -12.32 v 10.504 h 12.32 v 21.703 h 11.89 V 412.41"
         style="fill:#2151a8;fill-opacity:1;fill-rule:nonzero;stroke:none"
         id="path60" />
      <path
         d="m 1844.62,362.852 c 0.41,-10.645 9.65,-14.004 19.45,-14.004 7.42,0 17.5,1.679 17.5,10.781 0,9.238 -11.76,10.781 -23.65,13.437 -11.76,2.668 -23.67,6.582 -23.67,20.442 0,14.558 14.43,20.586 27.03,20.586 15.96,0 28.69,-5.039 29.67,-22.688 h -11.9 c -0.84,9.239 -8.96,12.188 -16.79,12.188 -7.15,0 -15.41,-1.961 -15.41,-9.246 0,-8.535 12.61,-9.942 23.67,-12.602 11.89,-2.652 23.65,-6.578 23.65,-20.574 0,-17.227 -16.09,-22.82 -30.8,-22.82 -16.23,0 -29.96,6.582 -30.66,24.5 h 11.91"
         style="fill:#2151a8;fill-opacity:1;fill-rule:nonzero;stroke:none"
         id="path62" />
      <path
         d="m 1967.26,340.031 h -11.22 v 11.485 h -0.27 c -5.04,-8.965 -13.16,-13.164 -23.51,-13.164 -19.05,0 -24.93,10.918 -24.93,26.453 v 47.605 h 11.9 v -49 c 0,-8.82 5.6,-14.562 14.71,-14.562 14.41,0 21.42,9.66 21.42,22.687 v 40.875 h 11.9 v -72.379"
         style="fill:#2151a8;fill-opacity:1;fill-rule:nonzero;stroke:none"
         id="path64" />
      <path
         d="m 2019.19,403.594 c -15.96,0 -22.13,-13.723 -22.13,-27.305 0,-14.277 6.45,-27.441 22.83,-27.441 16.23,0 21.7,13.855 21.7,28 0,13.582 -7.01,26.746 -22.4,26.746 z m -33.61,8.816 h 11.91 v -9.801 h 0.27 c 3.93,7.977 13.17,11.485 23.11,11.485 22.26,0 33.32,-17.649 33.32,-38.086 0,-20.442 -10.92,-37.656 -33.05,-37.656 -7.42,0 -18.06,2.8 -23.38,11.336 h -0.27 v -37.383 h -11.91 V 412.41"
         style="fill:#2151a8;fill-opacity:1;fill-rule:nonzero;stroke:none"
         id="path66" />
      <path
         d="m 2102.2,403.594 c -15.96,0 -22.11,-13.723 -22.11,-27.305 0,-14.277 6.42,-27.441 22.81,-27.441 16.25,0 21.7,13.855 21.7,28 0,13.582 -6.99,26.746 -22.4,26.746 z m -33.6,8.816 h 11.9 v -9.801 h 0.29 c 3.91,7.977 13.15,11.485 23.09,11.485 22.26,0 33.32,-17.649 33.32,-38.086 0,-20.442 -10.92,-37.656 -33.03,-37.656 -7.42,0 -18.07,2.8 -23.38,11.336 h -0.29 v -37.383 h -11.9 V 412.41"
         style="fill:#2151a8;fill-opacity:1;fill-rule:nonzero;stroke:none"
         id="path68" />
      <path
         d="m 2182.43,348.848 c 12.46,0 22.54,9.804 22.54,27.304 0,17.637 -10.08,27.442 -22.54,27.442 -12.46,0 -22.54,-9.805 -22.54,-27.442 0,-17.5 10.08,-27.304 22.54,-27.304 z m 0,65.246 c 22.95,0 35.14,-16.66 35.14,-37.942 0,-21.14 -12.19,-37.8 -35.14,-37.8 -22.97,0 -35.14,16.66 -35.14,37.8 0,21.282 12.17,37.942 35.14,37.942"
         style="fill:#2151a8;fill-opacity:1;fill-rule:nonzero;stroke:none"
         id="path70" />
      <path
         d="m 2231.14,412.41 h 11.19 v -15.262 h 0.3 c 5.74,11.622 13.71,17.364 26.6,16.946 v -12.61 c -19.18,0 -26.19,-10.918 -26.19,-29.257 v -32.196 h -11.9 v 72.379"
         style="fill:#2151a8;fill-opacity:1;fill-rule:nonzero;stroke:none"
         id="path72" />
      <path
         d="m 2294.7,412.41 h 14.43 v -10.504 h -14.43 v -44.933 c 0,-5.457 1.54,-6.446 8.96,-6.446 h 5.47 v -10.496 h -9.1 c -12.32,0 -17.23,2.52 -17.23,15.821 v 46.054 h -12.32 v 10.504 h 12.32 v 21.703 h 11.9 V 412.41"
         style="fill:#2151a8;fill-opacity:1;fill-rule:nonzero;stroke:none"
         id="path74" />
      <path
         d="M 122.305,789.234 H 179.91 V 527.227 h -57.605 v 262.007"
         style="fill:#231f20;fill-opacity:1;fill-rule:nonzero;stroke:none"
         id="path76" />
      <path
         d="m 291.105,716.945 h 38.157 v -34.867 h -38.157 v -93.937 c 0,-17.614 4.399,-22.016 22.016,-22.016 5.5,0 10.641,0.363 16.141,1.469 v -40.735 c -8.801,-1.468 -20.18,-1.836 -30.453,-1.836 -31.922,0 -59.817,7.34 -59.817,45.137 v 111.918 h -31.554 v 34.867 h 31.554 v 56.875 h 52.113 v -56.875"
         style="fill:#231f20;fill-opacity:1;fill-rule:nonzero;stroke:none"
         id="path78" />
      <path
         d="m 481.914,642.453 c -4.769,26.418 -16.144,40.363 -41.465,40.363 -33.027,0 -42.566,-25.687 -43.301,-40.363 z m -84.766,-33.027 c 1.469,-33.028 17.614,-48.074 46.602,-48.074 20.918,0 37.797,12.847 41.098,24.586 h 45.875 c -14.684,-44.766 -45.875,-63.848 -88.805,-63.848 -59.813,0 -96.879,41.098 -96.879,99.808 0,56.883 39.27,100.184 96.879,100.184 64.582,0 95.773,-54.312 92.105,-112.656 H 397.148"
         style="fill:#231f20;fill-opacity:1;fill-rule:nonzero;stroke:none"
         id="path80" />
      <path
         d="m 705.758,621.535 c 0,30.09 -12.11,61.281 -45.504,61.281 -34.125,0 -45.137,-30.457 -45.137,-61.281 0,-30.828 11.742,-60.183 45.504,-60.183 34.125,0 45.137,29.355 45.137,60.183 z m -140.914,95.41 h 49.543 v -24.218 h 0.73 c 12.477,20.179 33.028,29.355 56.516,29.355 59.441,0 86.226,-48.074 86.226,-102.012 0,-50.64 -27.882,-97.98 -83.293,-97.98 -22.753,0 -44.406,9.906 -56.878,28.625 h -0.735 v -90.274 h -52.109 v 256.504"
         style="fill:#231f20;fill-opacity:1;fill-rule:nonzero;stroke:none"
         id="path82" />
      <path
         d="m 789.047,716.945 h 49.543 v -35.23 h 0.73 c 9.543,23.851 35.231,40.367 60.547,40.367 3.672,0 8.078,-0.734 11.379,-1.836 v -48.437 c -4.769,1.101 -12.476,1.836 -18.719,1.836 -38.164,0 -51.371,-27.528 -51.371,-60.918 v -85.5 h -52.109 v 189.718"
         style="fill:#231f20;fill-opacity:1;fill-rule:nonzero;stroke:none"
         id="path84" />
      <path
         d="m 1017.35,561.352 c 35.6,0 46.24,30.461 46.24,60.546 0,30.461 -10.64,60.918 -46.24,60.918 -35.221,0 -45.866,-30.457 -45.866,-60.918 0,-30.085 10.645,-60.546 45.866,-60.546 z m 0,160.73 c 59.82,0 98.35,-39.637 98.35,-100.184 0,-60.179 -38.53,-99.808 -98.35,-99.808 -59.44,0 -97.971,39.629 -97.971,99.808 0,60.547 38.531,100.184 97.971,100.184"
         style="fill:#231f20;fill-opacity:1;fill-rule:nonzero;stroke:none"
         id="path86" />
      <path
         d="m 447.25,740.953 h -36.328 l 35.23,52.106 h 57.614 L 447.25,740.953"
         style="fill:#2151a8;fill-opacity:1;fill-rule:nonzero;stroke:none"
         id="path88" />
    </g>
  </g>
</svg>
