<?xml version="1.0" encoding="UTF-8" standalone="no"?>
<!-- Generator: Adobe Illustrator 19.2.1, SVG Export Plug-In . SVG Version: 6.00 Build 0)  -->

<svg
   version="1.1"
   id="layer"
   x="0px"
   y="0px"
   viewBox="0 0 600 139.27075"
   xml:space="preserve"
   sodipodi:docname="apm-terminals-logo-vector-2023.svg"
   width="600"
   height="139.27075"
   inkscape:version="1.2 (dc2aeda, 2022-05-15)"
   xmlns:inkscape="http://www.inkscape.org/namespaces/inkscape"
   xmlns:sodipodi="http://sodipodi.sourceforge.net/DTD/sodipodi-0.dtd"
   xmlns="http://www.w3.org/2000/svg"
   xmlns:svg="http://www.w3.org/2000/svg"><defs
   id="defs18" /><sodipodi:namedview
   id="namedview16"
   pagecolor="#ffffff"
   bordercolor="#000000"
   borderopacity="0.25"
   inkscape:showpageshadow="2"
   inkscape:pageopacity="0.0"
   inkscape:pagecheckerboard="0"
   inkscape:deskcolor="#d1d1d1"
   showgrid="false"
   inkscape:zoom="2.0713214"
   inkscape:cx="300.05"
   inkscape:cy="69.762228"
   inkscape:window-width="1387"
   inkscape:window-height="1205"
   inkscape:window-x="0"
   inkscape:window-y="25"
   inkscape:window-maximized="0"
   inkscape:current-layer="layer" />
<style
   type="text/css"
   id="style9">
	.st0{fill:#3C3C46;}
	.st1{fill:#FF6441;}
</style>
<path
   class="st0"
   d="m 492.9,59.1 -15.5,35.5 h 9 l 3.4,-7.7 h 18 l 3.4,7.7 h 9.5 L 505.3,59.1 Z m -0.1,21 6,-13.7 6,13.7 z M 377.3,94.7 h 6.9 l 9.5,-20 v 20 h 8.6 V 59.2 H 392.2 L 380.9,85 369.6,59.2 H 359 v 35.5 h 8.6 v -20 z m -201.2,0 h 6.9 l 9.5,-20 v 20 h 8.6 V 59.2 H 191 L 179.7,85 168.4,59.2 h -10.5 v 35.5 h 8.6 v -20 z M 305.9,59.1 v 7.3 h -24.7 v 7.2 h 20.6 v 7.1 h -20.6 v 6.6 h 24.6 v 7.3 H 272 V 59.1 h 33.9 c 0,0.1 0,0 0,0 z M 82,59.1 66.5,94.6 h 9 l 3.4,-7.7 h 18 l 3.4,7.7 h 9.5 L 94.4,59.1 c -0.1,0 -12.4,0 -12.4,0 z m -0.1,21 6,-13.7 6,13.7 z m 60,-4.8 h -17.3 v -9.2 h 17.3 z M 115.1,59.1 v 35.5 h 9.3 v -12 h 20.8 c 2.7,0 4.8,-1.6 5.1,-5.1 V 64.2 c 0,-2.9 -2.5,-5.2 -5.5,-5.2 -0.1,0.1 -29.7,0.1 -29.7,0.1 z m 420.8,0 h -9.3 v 35.5 h 31.9 V 87.3 H 535.8 V 59.1 Z m -103.6,0 v 35.5 h 9.2 V 70.1 l 19.6,24.5 h 10.1 V 59.1 h -9.3 V 83.6 L 442.7,59.1 Z m -19.5,35.6 h 8.9 V 59.3 h -8.9 z M 226.4,59.1 v 7.6 h 14.3 v 28 h 9.5 v -28 h 14.3 v -7.6 z m 343.8,0 C 567.5,59 565,61.4 565,63.9 v 11.6 c 0,3 2.5,5.2 5.1,5.2 h 20.6 v 6.9 h -16.4 v -2.9 h -9.6 v 4.9 c 0,2.7 2.4,5.2 5.2,5.2 H 595 c 2.5,0 5.1,-1.9 5.1,-5.3 V 78.4 c -0.1,-3.3 -2.5,-5.2 -5.2,-5.3 h -20.2 v -6.6 h 15.9 v 2.3 h 9 v -4.7 c 0.1,-2.3 -2.2,-4.9 -5.2,-4.8 h -24.1 z m -255.9,0 v 35.5 h 9 v -13 h 10.4 l 7,13 h 9.6 l -7.2,-13 h 0.8 c 2.8,-0.2 4.8,-2.3 4.8,-5.3 v -12 c 0,-2.9 -2.5,-5.2 -5.5,-5.2 0.1,0 -28.9,0 -28.9,0 z m 26.4,15.4 h -17.5 v -8.1 h 17.5 z"
   id="path11" />
<path
   class="st1"
   d="m 107.2,51.5 v -10 L 182.4,7 V 20.3 Z M 27.8,64.1 v 7 L 144.4,12.5 V 0 Z M 0,95.9 64.3,69.3 V 61.2 L 0,90.6 Z m 353.1,35 v 2.2 h -12.5 v -20.5 h 2.7 v 18.3 z m 2.9,-18.7 h 2.9 v 2.9 H 356 Z m 0.1,5.7 h 2.5 v 15.2 h -2.5 c 0,0 0,-15.2 0,-15.2 z m 16.7,2.1 h -5.4 v 13.3 h -2.5 V 120 h -3 v -2 h 3 v -1.2 c 0,-2.7 1.1,-5.2 5.4,-5.2 0.8,0 1.8,0.1 2.4,0.4 v 2 c -0.6,-0.1 -1.4,-0.2 -2.3,-0.2 -1.9,0 -3.1,0.8 -3.1,3.1 v 1.2 h 5.4 v 1.9 z m 4.8,8.6 v -8.7 h -2.8 v -2 h 2.8 v -3.6 l 2.5,-0.7 v 4.3 h 4.8 v 2 h -4.8 v 8.7 c 0,2.4 1.1,2.7 2.2,2.7 1,0 2.2,-0.2 2.8,-0.5 v 2 c -0.7,0.2 -1.9,0.5 -3.3,0.5 -2.9,0.2 -4.2,-1.3 -4.2,-4.7 z M 388,112.2 h 2.9 v 2.9 H 388 Z m 0.2,5.7 h 2.5 v 15.2 h -2.5 c 0,0 0,-15.2 0,-15.2 z m 7,0 h 2.2 l 0.2,1.3 c 0,0.2 0.1,0.2 0.2,0.2 0.1,0 0.2,0 0.5,-0.2 1,-0.7 2.4,-1.6 4.8,-1.6 3,0 4.6,1.3 4.6,4.5 v 11.1 h -2.5 v -10.5 c 0,-2.3 -1.1,-2.9 -2.9,-2.9 -2,0 -3.7,1 -4.6,1.7 v 11.7 h -2.5 z m 15.8,17.5 c 0,-1.7 1.2,-3.1 2.7,-4.2 -1.2,-0.5 -1.7,-1.2 -1.7,-2.3 0,-1 0.6,-1.8 1.4,-2.4 -1.2,-0.8 -1.9,-2.3 -1.9,-3.9 0,-3.5 1.9,-5.1 6.5,-5.1 0.8,0 1.6,0.1 2.4,0.2 h 5.4 l 0.2,1.4 -2.8,0.4 c 0.6,0.7 1,1.8 1,2.9 0,3.5 -1.9,5.1 -6.3,5.1 -1.1,0 -2.2,-0.1 -3,-0.5 -0.5,0.4 -0.7,0.8 -0.7,1.3 0,0.7 0.5,1 1.9,1.2 l 5.9,1.2 c 2.2,0.5 3.3,1.9 3.3,4 0,3.1 -2.2,4.5 -7.2,4.5 -5,0.4 -7.1,-0.9 -7.1,-3.8 z m 11.7,-0.1 c 0,-1.3 -0.7,-2 -2.3,-2.4 l -5.2,-1.1 c -1.1,1.1 -1.8,2 -1.8,3.1 0,1.8 1.4,2.7 4.6,2.7 3.4,-0.1 4.7,-0.7 4.7,-2.3 z m -1,-12.6 c 0,-2.4 -1,-3.1 -3.7,-3.1 -2.9,0 -4,0.8 -4,3.1 0,2.3 1.1,3.1 3.9,3.1 2.7,-0.1 3.8,-0.9 3.8,-3.1 z m 13.8,0.1 c 0,-7.6 2.8,-10.5 9.2,-10.5 2.7,0 4.6,0.5 5.3,0.8 v 2.3 c -0.7,-0.2 -2.7,-0.8 -5.2,-0.8 -5.2,0 -6.6,2.4 -6.6,8.1 0,7 2.3,8.4 5.3,8.4 2.3,0 3.9,-0.8 4.9,-1.3 v -5.5 h -4.3 v -2.2 h 6.9 v 11 h -2 l -0.2,-1.1 c 0,-0.1 -0.1,-0.4 -0.2,-0.4 -0.1,0 -0.2,0 -0.5,0.2 -0.6,0.4 -2.5,1.4 -4.9,1.4 -4.6,0.3 -7.7,-2.4 -7.7,-10.4 z m 19.7,7 v -18 h 2.5 v 17.6 c 0,1.3 0.5,1.9 1.6,1.9 0.6,0 1,0 1.6,-0.1 v 2 c -0.6,0.1 -1.3,0.2 -2.2,0.2 -2.1,0.1 -3.5,-1.2 -3.5,-3.6 z m 7.7,-4.3 c 0,-5.7 2.3,-8 7,-8 4.7,0 7,2.2 7,8 0,5.8 -2.3,8 -7,8 -4.7,0 -7,-2.2 -7,-8 z m 11.3,0 c 0,-4.2 -1.3,-5.8 -4.3,-5.8 -3.1,0 -4.3,1.6 -4.3,5.8 0,4.2 1.2,5.8 4.3,5.8 3.1,0 4.3,-1.6 4.3,-5.8 z m 6.5,6.9 v -20.6 h 2.5 v 7.6 c 0.6,-0.4 2.5,-1.7 4.9,-1.7 3.4,0 5.8,1.4 5.8,7.7 0,6.1 -2.2,8.2 -7.1,8.2 -2.8,-0.1 -4.8,-0.8 -6.1,-1.2 z m 10.6,-7 c 0,-4.3 -1.2,-5.5 -3.7,-5.5 -2.2,0 -3.6,1 -4.3,1.4 v 9.5 c 0.7,0.2 1.8,0.6 3.6,0.6 2.7,-0.1 4.4,-1.3 4.4,-6 z m 5.7,3.8 c 0,-2.7 1.3,-3.6 4.8,-4.6 l 4.7,-1.4 v -0.7 c 0,-1.4 -0.7,-2.8 -3.6,-2.8 -2.2,0 -3.9,0.6 -4.8,1 v -2.2 c 1.2,-0.5 2.9,-1 5.2,-1 4,0 5.8,1.8 5.8,4.9 V 133 h -2.2 l -0.2,-1.3 c 0,-0.2 -0.1,-0.2 -0.2,-0.2 -0.1,0 -0.2,0 -0.4,0.1 -0.8,0.6 -2.8,1.7 -4.8,1.7 -3.1,0.2 -4.3,-1.2 -4.3,-4.1 z m 9.4,0.8 v -4.8 l -4.5,1.3 c -2,0.6 -2.5,1.2 -2.5,2.7 0,1.6 0.6,2.3 2.3,2.3 1.8,-0.1 3.5,-0.9 4.7,-1.5 z m 6.9,-0.2 v -18 h 2.5 v 17.6 c 0,1.3 0.5,1.9 1.6,1.9 0.6,0 1,0 1.6,-0.1 v 2 c -0.6,0.1 -1.3,0.2 -2.2,0.2 -2.1,0.1 -3.5,-1.2 -3.5,-3.6 z m 20.9,-15 h -6.5 v -2.2 h 15.5 v 2.2 h -6.5 v 18.3 H 534 v -18.3 z m 9.7,3.1 h 2.2 l 0.2,1.6 c 0,0.2 0.1,0.4 0.2,0.4 0.1,0 0.2,0 0.4,-0.2 1,-0.8 2.5,-1.9 4.6,-1.9 0.2,0 0.6,0 0.8,0.1 v 2.3 c -1.9,-0.1 -4.1,0.5 -5.8,1.8 v 11.3 H 544 V 118 h -0.1 z m 10.4,11.3 c 0,-2.7 1.3,-3.6 4.8,-4.6 l 4.7,-1.4 v -0.7 c 0,-1.4 -0.7,-2.8 -3.6,-2.8 -2.2,0 -3.9,0.6 -4.8,1 v -2.2 c 1.2,-0.5 2.9,-1 5.2,-1 4,0 5.8,1.8 5.8,4.9 V 133 h -2.2 l -0.2,-1.2 c 0,-0.2 -0.1,-0.2 -0.2,-0.2 -0.1,0 -0.2,0 -0.4,0.1 -0.8,0.6 -2.8,1.7 -4.8,1.7 -2.9,0.1 -4.3,-1.3 -4.3,-4.2 z m 9.6,0.8 v -4.8 l -4.5,1.3 c -2,0.6 -2.5,1.2 -2.5,2.7 0,1.6 0.6,2.3 2.3,2.3 1.8,-0.1 3.5,-0.9 4.7,-1.5 z m 6.1,-4.5 c 0,-5.9 2.5,-8 6.6,-8 1.8,0 3.1,0.4 4.1,1 v -6.7 h 2.5 v 21.3 H 581 l -0.2,-1.3 c 0,-0.1 -0.1,-0.2 -0.2,-0.2 -0.1,0 -0.1,0 -0.2,0.1 -0.6,0.6 -2.3,1.7 -4.5,1.7 -3.2,0.1 -5.9,-1.8 -5.9,-7.9 z m 10.7,4.1 v -9.2 c -0.7,-0.4 -2,-0.7 -3.6,-0.7 -3.1,0 -4.5,1.4 -4.5,5.8 0,4.3 1.6,5.8 3.9,5.8 1.8,0 3.5,-1.1 4.2,-1.7 z m 19.2,-3.5 h -10.2 c 0.1,3.7 1.6,5.1 4.7,5.1 2.3,0 4.1,-0.7 5.2,-1.2 v 2.3 c -1,0.5 -2.7,1.1 -5.3,1.1 -5.1,0 -7,-2.7 -7,-8.3 0,-5.5 2.3,-7.5 6.6,-7.5 4.2,0 6.1,2.2 6.1,6.4 0,-0.1 -0.1,2.1 -0.1,2.1 z m -2.4,-2.6 c 0,-2.5 -1.2,-3.7 -3.9,-3.7 -2.8,0 -4,1.1 -4.1,4.6 h 7.8 v -0.8 c 0,-0.1 0.2,-0.1 0.2,-0.1 z"
   id="path13" />
</svg>
